<svg width="800" height="800" viewBox="0 0 800 800" fill="none" xmlns="http://www.w3.org/2000/svg">
  <circle cx="400" cy="400" r="320" fill="#050A23"/>
  <path d="M145 400H245M555 400H655M400 145V245M400 555V655" stroke="#25FBAC" stroke-width="45" stroke-linecap="round"/>
  <path d="M400 600C513.071 600 605 508.071 605 395C605 281.929 513.071 190 400 190C286.929 190 195 281.929 195 395C195 508.071 286.929 600 400 600Z" stroke="#25FBAC" stroke-width="45" stroke-linecap="round" stroke-dasharray="1 90"/>
  <path d="M430 430C430 430 506.5 450 545 420C583.5 390 545 350 545 350C545 350 500 320 440 340C380 360 370 310 310 320C250 330 250 400 290 420C330 440 380 430 430 430Z" fill="#2196F3"/>
  <path d="M290 420C290 420 330 450 360 450C390 450 420 440 430 430C430 430 380 446 346 438C312 430 290 420 290 420Z" fill="#25FBAC"/>
</svg>